# xmcd
#
# Track frame offsets:
#	150
#	6259
#	20766
#	34175
#	51043
#	68312
#	87357
#	101358
#	118107
#	133278
#	146523
#	160671
#	183703
#	197094
#	213941
#	233466
#
# Disc length: 3152 seconds
#
# Revision: 0
# Processed by: cddbd v1.5.2PL0 Copyright (c) Steve Scherf et al.
# Submitted via: dBpowerAMP V4.0
#
DISCID=d60c4e10
DTITLE=Mr. Wrong - Put On The Glasses
DYEAR=2009
DGENRE=Hip-Hop/Rap
TTITLE0=Put Em On
TTITLE1=David Icke
TTITLE2=Dumb Ill
TTITLE3=Anti-Intelligence
TTITLE4=Fucked In The Head Music (Ft. Bill Shakes)
TTITLE5=Cold Sag Run (Ft. COTD)
TTITLE6=Hock Tu
TTITLE7=Child's Play 2 (Ft. Bill Shakes)
TTITLE8=The Mr. Wrong Show
TTITLE9=Beer Money
TTITLE10=Blunted Hyena Style (Ft. Bill Shakes)
TTITLE11=No Goodnik
TTITLE12=Paranoia
TTITLE13=Pie And Chips (Ft. Salar)
TTITLE14=Steam
TTITLE15=Take Em Off
EXTD=
EXTT0=
EXTT1=
EXTT2=
EXTT3=
EXTT4=
EXTT5=
EXTT6=
EXTT7=
EXTT8=
EXTT9=
EXTT10=
EXTT11=
EXTT12=
EXTT13=
EXTT14=
EXTT15=
PLAYORDER=
